<svg xmlns="http://www.w3.org/2000/svg" xmlns:xlink="http://www.w3.org/1999/xlink" viewBox="0 0 645 645"><defs><style>.cls-1{fill:#66a3c3;}.cls-2{fill:url(#linear-gradient);}.cls-3{fill:url(#linear-gradient-2);}</style><linearGradient id="linear-gradient" x1="306.15" y1="334.54" x2="661.31" y2="72.83" gradientUnits="userSpaceOnUse"><stop offset="0" stop-color="#fff7d9"/><stop offset="0.19" stop-color="#fffbea"/><stop offset="0.26" stop-color="#fffdf2"/><stop offset="0.48" stop-color="#fffdf2"/></linearGradient><linearGradient id="linear-gradient-2" x1="361.22" y1="293.95" x2="716.29" y2="32.29" gradientUnits="userSpaceOnUse"><stop offset="0" stop-color="#fff2bd"/><stop offset="0.04" stop-color="#fff4c8"/><stop offset="0.17" stop-color="#fffbeb"/></linearGradient></defs><title>Asset 1</title><g id="Layer_2" data-name="Layer 2"><g id="Layer_3" data-name="Layer 3"><circle class="cls-1" cx="322.5" cy="322.5" r="322.5"/><g id="_Group_" data-name="&lt;Group&gt;"><path class="cls-2" d="M505.91,461.27,396.7,541.83A42,42,0,0,1,338.15,533L126,245.41a42,42,0,0,1,8.84-58.55L248.3,103.17c.4-.29.79-.57,1.19-.84-20.57,59.16,1.41,150.45,61.43,231.81C368.3,411.93,444.62,459.18,505.91,461.27Z"/><path class="cls-3" d="M510.15,458.14l-4.24,3.13c-61.29-2.09-137.61-49.34-195-127.13-60-81.36-82-172.65-61.43-231.81A42,42,0,0,1,306.85,112L519,399.59A42,42,0,0,1,510.15,458.14Z"/></g></g></g></svg>